<svg width="22" height="26" viewBox="0 0 22 26" fill="none" xmlns="http://www.w3.org/2000/svg">
<path d="M22 13C21.9993 13.3439 21.9104 13.6819 21.7419 13.9817C21.5734 14.2815 21.3309 14.5331 21.0375 14.7125L3.03751 25.7C2.73768 25.89 2.39141 25.994 2.03651 26.0006C1.68161 26.0072 1.33171 25.9162 1.02501 25.7375C0.713773 25.5668 0.454317 25.3153 0.27394 25.0095C0.0935623 24.7038 -0.00106682 24.355 9.07295e-06 24V2.00002C-0.00106682 1.64502 0.0935623 1.29629 0.27394 0.990532C0.454317 0.68477 0.713773 0.433279 1.02501 0.262521C1.33171 0.0838194 1.68161 -0.00719225 2.03651 -0.000579163C2.39141 0.00603393 2.73768 0.110018 3.03751 0.300021L21.0375 11.2875C21.3309 11.4669 21.5734 11.7186 21.7419 12.0184C21.9104 12.3182 21.9993 12.6561 22 13V13Z" fill="#471515"/>
</svg>
